<?xml version="1.0" standalone="no"?>
<!DOCTYPE svg PUBLIC "-//W3C//DTD SVG 20010904//EN"
 "http://www.w3.org/TR/2001/REC-SVG-20010904/DTD/svg10.dtd">
<svg version="1.0" xmlns="http://www.w3.org/2000/svg"
 width="1024.000000pt" height="1024.000000pt" viewBox="0 0 1024.000000 1024.000000"
 preserveAspectRatio="xMidYMid meet">
<metadata>
Created by potrace 1.11, written by Peter Selinger 2001-2013
</metadata>
<g transform="translate(0.000000,1024.000000) scale(0.100000,-0.100000)"
fill="#000000" stroke="none">
<path d="M5960 8898 c-184 -21 -460 -74 -590 -113 -47 -15 -92 -28 -100 -30
-69 -15 -338 -119 -470 -182 -58 -27 -112 -53 -120 -57 -8 -3 -37 -20 -65 -36
-27 -17 -60 -35 -72 -40 -12 -5 -46 -24 -75 -43 -29 -19 -87 -56 -128 -82
-139 -89 -373 -271 -471 -365 -15 -14 -46 -43 -70 -66 -42 -39 -151 -153 -229
-240 -20 -21 -63 -73 -95 -114 -33 -41 -62 -77 -65 -80 -4 -3 -22 -27 -41 -55
-18 -27 -37 -52 -40 -55 -3 -3 -35 -50 -71 -105 -144 -221 -262 -445 -355
-680 -64 -160 -133 -370 -136 -412 l-2 -26 1310 1 c721 0 1317 1 1325 1 13 1
15 94 14 776 l-2 776 37 -28 c30 -23 67 -52 211 -166 8 -7 103 -81 210 -166
107 -85 240 -191 296 -235 55 -45 118 -94 139 -111 55 -43 157 -124 175 -138
8 -7 69 -55 135 -107 144 -114 472 -375 500 -398 12 -9 50 -39 85 -67 36 -27
74 -57 85 -67 11 -9 243 -193 515 -408 272 -216 504 -399 515 -408 11 -10 82
-66 158 -126 75 -59 137 -112 137 -116 0 -4 -82 -72 -182 -151 -100 -79 -241
-191 -314 -249 -72 -58 -189 -150 -259 -205 -70 -55 -133 -105 -139 -110 -6
-6 -31 -26 -56 -45 -25 -19 -47 -37 -50 -40 -3 -3 -21 -17 -42 -32 -20 -15
-42 -33 -50 -40 -7 -7 -31 -26 -53 -43 -22 -16 -49 -37 -60 -47 -17 -14 -346
-275 -470 -373 -46 -37 -103 -81 -147 -116 -18 -15 -85 -68 -148 -117 -63 -50
-119 -95 -125 -99 -5 -5 -44 -35 -85 -68 -41 -33 -82 -65 -90 -72 -8 -7 -150
-119 -315 -250 -165 -131 -365 -290 -445 -353 -79 -63 -149 -118 -156 -122 -9
-6 -12 173 -11 763 0 535 -3 773 -10 777 -9 5 -2612 8 -2646 3 -11 -2 6 -68
66 -246 378 -1133 1251 -2015 2372 -2394 114 -38 319 -95 388 -106 18 -3 39
-8 47 -10 23 -7 178 -33 235 -40 28 -3 59 -8 70 -10 124 -26 743 -26 845 0 8
2 40 6 70 10 30 3 65 7 76 9 12 3 39 7 60 10 22 4 62 11 89 16 28 6 59 12 70
14 11 2 40 9 65 16 25 7 52 14 60 15 86 18 395 119 473 155 23 10 80 35 127
55 99 43 328 161 351 181 8 8 18 14 22 14 9 0 190 117 271 175 280 202 543
454 762 730 85 107 238 331 295 430 19 33 39 69 46 80 28 50 154 306 178 363
114 276 219 639 251 872 3 25 8 52 9 62 26 135 39 330 39 578 0 254 -16 468
-49 640 -2 8 -10 56 -19 105 -69 372 -235 819 -433 1163 -110 190 -274 426
-372 537 -20 22 -56 65 -81 94 -229 274 -629 597 -985 795 -397 220 -807 359
-1272 430 -16 3 -57 7 -93 11 -36 4 -78 9 -95 12 -16 3 -151 6 -300 8 -213 2
-305 -2 -435 -17z"/>
<path d="M130 5131 l0 -987 1303 2 c716 1 1305 2 1309 3 3 0 0 25 -8 54 -16
61 -61 294 -69 352 -2 22 -7 58 -10 80 -11 81 -14 113 -21 240 -12 205 -7 519
10 625 3 14 7 54 11 90 3 36 7 72 10 80 2 8 6 37 10 64 3 28 12 80 20 116 21
99 26 122 31 154 3 16 10 40 15 53 5 13 9 32 9 42 0 17 -62 18 -1310 18
l-1310 0 0 -986z"/>
</g>
</svg>
