<?xml version="1.0" encoding="UTF-8"?>
<svg width="512px" height="512px" viewBox="0 0 512 512" xmlns="http://www.w3.org/2000/svg" xmlns:xlink="http://www.w3.org/1999/xlink" version="1.1">
 <!-- Generated by Pixelmator Pro 1.6.1 -->
 <path id="Form" d="M308.581 425.284 C231.517 425.284 166.715 371.844 147.966 299.376 L266.397 299.376 266.397 368.544 408.89 255.527 266.397 142.509 266.397 211.677 148.307 211.677 C167.496 139.878 231.983 87.081 308.581 87.081 400.308 87.081 474.669 162.791 474.669 256.183 474.669 349.575 400.308 425.284 308.581 425.284 Z M148.307 211.677 C144.518 225.858 142.495 240.779 142.495 256.183 142.495 271.112 144.398 285.588 147.966 299.376 L31.643 299.376 31.643 211.677 148.307 211.677 Z" fill="#ffffff" fill-opacity="1" stroke="none"/>
</svg>
